EMG
version=1
nRows=17
nColumns=17
inDegrees=no
endheader
time	_right_gast_med	_right_glut_max	_left_gast_med	_left_glut_max	_right_glut_med	_right_bic_fem	_right_rect_fem	_right_vast_lat	_right_vast_med	_right_tens_fasc_lat	_left_glut_med	_left_bic_fem	_left_rect_fem	_left_vast_lat	_left_vast_med	_left_tens_fasc_lat
      0.57000000	     -1.81893563	     -0.04911289	      0.03581274	     -0.07948299	      0.01073203	      0.00068483	     -0.30341884	      0.11438797	     -0.09226330	     -0.08849649	     -0.05348866	      0.07005765	      0.00782050	      0.05881366	      0.02494220	     -0.02775221
      0.58000000	     -1.29866397	     -0.17273499	      0.04583569	      0.37864774	      0.07209325	      0.01796059	     -0.17302527	      0.08677938	     -0.02695725	     -0.05190765	     -0.03413888	      0.11436504	      0.00282448	      0.07712583	     -0.02948153	     -0.08402088
      0.59000000	      0.32497454	     -0.17289352	      0.03394966	      0.56572104	      0.09185500	      0.02934623	     -0.06243947	      0.00006900	     -0.02987806	      0.07077712	     -0.01662601	      0.09828959	      0.00982024	      0.04678855	     -0.03420490	     -0.07780233
      0.60000000	     -0.57671160	     -0.02463146	      0.02039904	      0.32923728	      0.05058739	      0.00517313	     -0.01821840	     -0.02160689	     -0.01824408	      0.05290956	      0.03235785	      0.08369467	      0.02748328	      0.01716655	     -0.02901876	     -0.00105876
      0.61000000	     -1.39637387	      0.27763736	      0.01030894	     -0.00201271	      0.03821297	     -0.03972711	      0.01500732	      0.03814004	     -0.00733032	     -0.03918560	      0.08314474	      0.08799175	      0.03246453	      0.02261736	     -0.03135686	      0.08129648
      0.62000000	     -0.33357763	      0.35404730	     -0.00120966	     -0.13621548	      0.08947571	     -0.04051784	      0.00622498	      0.04238136	     -0.09434918	      0.00705236	      0.08997852	      0.07613883	      0.01520342	      0.02343739	     -0.01174503	      0.09399283
      0.63000000	      0.81008893	      0.17235474	     -0.01043382	     -0.13653208	      0.14961298	      0.00463628	     -0.07943434	      0.05678651	     -0.22928278	      0.13689204	      0.06875537	      0.04394004	     -0.00672004	     -0.01552317	      0.02146176	      0.04295448
      0.64000000	      1.09659994	     -0.02760966	     -0.00956837	     -0.10096339	      0.15761355	      0.04855093	     -0.08775627	      0.04957058	     -0.17042704	      0.14348704	      0.04557704	      0.01620483	     -0.01496987	     -0.05397820	      0.04139386	     -0.00317317
      0.65000000	      0.62186599	     -0.31465971	     -0.00475147	     -0.04504980	      0.11252347	      0.05594895	      0.05761320	     -0.03565878	      0.04021350	      0.06279561	      0.02406920	     -0.00729721	     -0.00339861	     -0.06086304	      0.03934965	     -0.02376040
      0.66000000	      0.32410437	     -0.49910551	     -0.01581948	      0.02556602	      0.01735236	      0.04189356	      0.14592211	     -0.08920605	      0.15867658	      0.03005748	      0.00994177	     -0.00446161	      0.01763215	     -0.05816657	      0.00424926	     -0.02518837
      0.67000000	      0.12734456	     -0.20432507	     -0.03865546	      0.02574832	     -0.05935802	      0.01315149	      0.11188954	     -0.08273697	      0.16265912	      0.03496880	      0.01839405	      0.03605621	      0.02596339	     -0.05913702	     -0.05084999	     -0.01461155
      0.68000000	     -0.60062093	      0.29622802	     -0.02340145	     -0.00235088	     -0.03495948	     -0.03880398	      0.07781038	     -0.04375115	      0.12230561	      0.01695563	      0.03752099	      0.02281457	      0.02480579	     -0.05686272	     -0.09847385	      0.00189541
      0.69000000	     -0.18718266	      0.43204373	      0.02516416	      0.05545745	      0.02266503	     -0.07019430	      0.06073103	      0.00522787	      0.04901733	     -0.01547612	      0.04052647	     -0.04073391	      0.02302863	     -0.05986580	     -0.10953864	      0.02729744
      0.70000000	      1.85681391	      0.22251236	      0.03585430	      0.11059773	      0.03100403	     -0.03827142	      0.02248724	      0.07777487	     -0.01254961	     -0.01926083	      0.02768283	     -0.11132287	      0.01141228	     -0.04868867	     -0.07570330	      0.04310402
      0.71000000	      2.04340720	      0.05621482	      0.02687470	      0.06520274	      0.00478009	      0.00985424	      0.00149881	      0.18705826	     -0.02971319	     -0.00673477	      0.00767925	     -0.13890128	      0.00408923	      0.00782533	     -0.04440930	      0.03555163
      0.72000000	     -0.84491956	      0.00694902	      0.03482104	     -0.00657291	     -0.01119752	      0.03446938	      0.02212159	      0.21590331	     -0.02259271	     -0.00623793	     -0.02066861	     -0.08606821	      0.00693868	      0.06560619	     -0.03638038	      0.01839891
      0.73000000	     -1.99600661	     -0.05334941	     -0.00771639	     -0.03636228	     -0.01025855	      0.03973309	      0.04026445	      0.09256332	     -0.01090487	     -0.00220014	     -0.04325228	     -0.00145235	      0.00280998	      0.07187786	      0.01772147	      0.00788089
